<?xml version='1.0' encoding='iso-8859-1'?>
<svg version="1.1" xmlns="http://www.w3.org/2000/svg" viewBox="0 0 24 24" xmlns:xlink="http://www.w3.org/1999/xlink" enable-background="new 0 0 24 24">
  <g>
    <path d="M24,3c0-0.6-0.4-1-1-1H1C0.4,2,0,2.4,0,3v2c0,0.6,0.4,1,1,1h22c0.6,0,1-0.4,1-1V3z"/>
    <path d="M24,11c0-0.6-0.4-1-1-1H1c-0.6,0-1,0.4-1,1v2c0,0.6,0.4,1,1,1h22c0.6,0,1-0.4,1-1V11z"/>
    <path d="M24,19c0-0.6-0.4-1-1-1H1c-0.6,0-1,0.4-1,1v2c0,0.6,0.4,1,1,1h22c0.6,0,1-0.4,1-1V19z"/>
  </g>
</svg>
