<?xml version="1.0" encoding="UTF-8" ?>
<!DOCTYPE svg PUBLIC "-//W3C//DTD SVG 1.1//EN" "http://www.w3.org/Graphics/SVG/1.1/DTD/svg11.dtd">
<svg width="1000pt" height="912pt" viewBox="0 0 1000 912" version="1.1" xmlns="http://www.w3.org/2000/svg">
<g id="#ffffffff">
</g>
<g id="#4427f1ff">
<path fill="#4427f1" opacity="1.00" d=" M 528.68 0.00 L 533.45 0.00 C 537.52 2.22 541.78 4.73 544.28 8.78 C 545.97 11.39 543.23 13.81 541.62 15.62 C 528.08 28.74 514.88 42.21 501.49 55.48 C 494.57 62.57 487.01 69.00 480.17 76.18 C 436.12 119.97 392.02 163.70 348.23 207.75 C 347.06 208.83 345.89 209.89 344.72 210.97 C 344.27 208.91 343.80 206.85 343.39 204.79 C 342.31 198.61 341.82 191.37 346.34 186.36 C 350.83 180.30 359.55 178.88 363.10 172.02 C 366.34 166.72 361.89 160.19 356.83 158.07 C 352.38 155.91 347.77 158.83 343.23 158.84 C 339.46 157.67 335.93 154.19 336.08 150.00 C 336.14 147.49 335.79 143.87 338.55 142.64 C 343.73 141.44 349.21 142.87 354.37 141.36 C 357.95 140.39 360.90 137.59 362.31 134.20 C 363.34 130.84 362.95 127.26 361.70 124.03 C 357.25 116.81 347.35 117.98 341.87 112.16 C 338.59 108.72 338.56 103.40 340.03 99.15 C 341.80 93.85 347.15 90.85 352.14 89.18 C 356.87 88.30 361.71 88.90 366.34 90.03 C 375.68 92.73 385.30 94.57 395.00 95.30 C 401.50 95.24 409.13 93.69 412.82 87.73 C 416.00 83.09 414.15 77.21 414.84 72.00 C 415.08 65.30 423.04 59.47 429.32 62.62 C 434.59 65.45 434.86 72.24 438.60 76.39 C 441.32 79.10 445.50 78.89 449.05 78.78 C 453.98 78.84 457.49 74.55 459.47 70.50 C 461.34 66.43 459.17 62.10 457.92 58.18 C 455.10 50.67 455.37 41.73 459.80 34.88 C 462.34 30.77 467.04 28.74 471.49 27.40 C 478.14 25.37 484.52 29.22 491.02 30.05 C 496.88 30.82 503.78 30.72 508.25 26.26 C 513.27 21.38 513.54 13.89 517.02 8.12 C 519.80 4.13 524.46 2.09 528.68 0.00 Z" />
<path fill="#4427f1" opacity="1.00" d=" M 479.27 100.27 C 482.03 97.44 484.92 94.74 487.83 92.07 C 493.53 99.59 497.71 108.49 498.50 117.98 C 498.36 124.47 496.32 130.80 493.72 136.70 C 490.46 143.93 484.21 149.40 477.29 153.02 C 472.41 155.03 467.28 156.60 462.04 157.32 C 451.43 157.56 441.66 152.60 433.12 146.74 C 448.23 130.98 463.96 115.84 479.27 100.27 Z" />
<path fill="#4427f1" opacity="1.00" d=" M 188.92 171.69 C 199.90 167.67 213.34 173.55 217.90 184.29 C 218.52 185.68 219.09 187.09 219.59 188.53 C 223.90 200.43 215.71 213.82 204.58 218.38 C 197.17 220.15 188.71 220.13 182.16 215.76 C 177.34 213.03 174.41 208.04 172.81 202.89 C 171.01 198.19 170.42 192.87 172.19 188.07 C 173.16 185.43 174.44 182.92 175.98 180.57 C 178.75 175.86 184.05 173.60 188.92 171.69 Z" />
<path fill="#4427f1" opacity="1.00" d=" M 172.36 293.53 C 177.26 292.60 182.25 296.58 182.64 301.53 C 183.58 306.79 179.08 311.79 174.01 312.39 C 169.01 311.84 164.52 308.06 163.93 302.93 C 164.28 298.38 168.00 294.56 172.36 293.53 Z" />
<path fill="#4427f1" opacity="1.00" d=" M 268.04 331.26 C 272.48 330.72 276.65 328.89 281.09 328.25 C 278.34 331.76 275.17 334.89 271.96 337.97 C 230.78 379.12 189.62 420.29 148.44 461.44 C 145.04 464.74 142.08 468.91 137.28 470.25 C 135.49 465.70 133.84 460.71 135.46 455.84 C 137.30 445.70 149.83 443.25 152.90 433.79 C 155.43 428.30 152.16 422.50 149.04 418.04 C 146.18 414.36 146.35 409.39 147.24 405.07 C 148.11 400.11 152.48 396.42 157.11 395.03 C 164.55 393.77 172.16 395.61 179.60 394.39 C 181.74 394.14 182.79 392.08 183.08 390.17 C 184.36 385.29 181.43 380.75 180.71 376.04 C 181.19 370.14 186.66 364.40 192.82 365.20 C 199.59 366.88 205.84 370.61 212.87 371.24 C 219.08 370.43 227.01 368.73 228.95 361.77 C 230.26 354.75 228.35 347.50 229.67 340.47 C 232.52 334.79 238.88 331.86 244.99 331.40 C 252.67 330.95 260.36 331.58 268.04 331.26 Z" />
<path fill="#4427f1" opacity="1.00" d=" M 51.44 351.50 C 55.14 338.92 71.10 330.95 83.09 336.94 C 85.90 337.93 88.16 339.90 90.36 341.84 C 84.98 347.63 79.21 353.04 73.68 358.68 C 68.26 364.03 63.09 369.66 57.11 374.41 C 51.61 368.39 48.42 359.43 51.44 351.50 Z" />
<path fill="#4427f1" opacity="1.00" d=" M 664.50 408.23 C 676.50 418.77 677.94 438.79 668.33 451.36 C 664.71 456.42 659.50 460.14 653.99 462.90 C 649.66 465.12 644.69 464.78 639.98 464.83 C 632.08 465.23 624.19 461.45 618.72 455.92 C 619.18 453.94 620.70 452.47 622.01 450.99 C 636.05 436.62 650.59 422.74 664.50 408.23 Z" />
<path fill="#4427f1" opacity="1.00" d=" M 903.51 448.51 C 906.01 446.08 908.18 443.21 911.21 441.39 C 912.95 441.10 914.01 442.84 914.45 444.28 C 916.02 449.28 916.05 455.01 913.57 459.72 C 908.63 466.95 899.17 470.69 896.54 479.51 C 895.63 484.93 898.58 490.06 901.45 494.45 C 904.42 498.55 903.63 504.03 902.35 508.60 C 900.31 513.36 895.50 517.43 890.04 516.77 C 882.89 517.37 874.97 514.85 868.39 518.43 C 866.44 522.71 867.55 527.66 868.90 531.96 C 872.03 539.57 863.15 548.20 855.54 545.79 C 848.34 543.84 841.23 539.49 833.51 541.21 C 828.30 542.03 822.76 544.84 821.02 550.16 C 820.09 556.97 821.65 563.91 820.54 570.72 C 818.13 576.08 812.51 579.32 806.78 579.90 C 794.82 581.39 782.53 578.73 770.80 582.28 C 772.57 579.92 774.46 577.64 776.61 575.60 C 800.39 552.38 823.40 528.40 846.99 505.00 C 865.84 486.17 884.67 467.33 903.51 448.51 Z" />
<path fill="#4427f1" opacity="1.00" d=" M 375.74 477.03 C 376.35 462.19 388.49 448.98 403.01 446.53 C 408.67 446.49 414.66 445.68 420.00 448.06 C 424.29 449.85 428.78 452.02 431.43 456.03 C 430.03 458.65 427.62 460.49 425.54 462.54 C 411.88 475.75 398.86 489.63 384.98 502.62 C 377.81 496.29 375.05 486.33 375.74 477.03 Z" />
<path fill="#4427f1" opacity="1.00" d=" M 565.49 476.69 C 571.29 474.45 577.51 472.92 583.77 473.24 C 584.40 473.34 585.65 473.54 586.28 473.64 C 592.40 475.51 598.33 478.00 604.08 480.82 C 603.06 482.21 602.18 483.72 601.02 485.01 C 580.48 505.14 560.40 525.74 539.95 545.95 C 514.96 571.62 489.43 596.76 464.15 622.14 C 390.48 695.81 316.81 769.47 243.10 843.10 C 240.47 845.75 238.00 848.61 234.97 850.83 C 230.19 848.12 227.89 842.68 226.17 837.73 C 223.07 829.00 225.56 818.65 232.19 812.21 C 242.39 799.58 260.04 798.58 272.82 789.76 C 276.80 786.46 281.02 782.69 282.30 777.46 C 283.76 771.05 281.89 764.43 279.08 758.67 C 276.81 754.56 273.87 750.75 272.70 746.12 C 271.16 740.54 269.60 734.82 269.66 729.00 C 270.47 722.27 272.32 715.18 277.26 710.25 C 282.78 704.18 291.19 702.10 298.99 700.88 C 306.03 700.20 313.82 698.14 318.13 692.08 C 322.69 686.55 321.84 678.76 320.76 672.18 C 318.27 665.44 312.68 659.88 306.17 656.93 C 299.17 653.69 291.26 656.46 284.91 659.92 C 278.32 663.25 271.69 667.81 263.98 667.46 C 260.08 667.52 256.03 666.44 253.10 663.79 C 252.50 663.13 251.94 662.45 251.40 661.77 C 249.67 658.74 248.42 655.37 247.98 651.91 C 248.44 646.41 250.51 640.52 255.22 637.25 C 260.00 633.70 266.32 634.08 271.59 631.65 C 278.57 629.02 283.54 622.79 285.95 615.89 C 288.56 610.27 287.48 603.95 287.66 597.97 C 288.02 589.84 282.83 582.37 284.52 574.19 C 285.67 570.02 287.43 565.68 290.87 562.89 C 295.82 559.23 301.75 556.41 308.06 556.89 C 315.40 556.78 321.91 561.08 326.65 566.37 C 332.00 571.64 333.78 579.20 337.65 585.44 C 340.83 590.66 344.47 596.12 350.24 598.73 C 354.27 600.48 358.54 602.24 363.01 602.18 C 368.82 601.51 374.29 598.50 378.21 594.20 C 383.01 588.73 381.93 580.93 384.36 574.48 C 387.49 563.82 396.40 555.71 406.40 551.45 C 415.86 548.00 426.35 547.58 436.08 550.15 C 445.67 552.18 455.03 556.20 465.01 555.46 C 472.07 555.65 478.95 552.75 484.28 548.23 C 488.71 544.13 490.41 537.89 490.35 532.01 C 490.73 525.93 487.03 520.29 482.25 516.84 C 478.38 514.13 474.58 510.63 473.40 505.88 C 471.89 498.53 478.56 492.12 485.28 490.69 C 487.79 490.67 489.98 492.29 492.13 493.43 C 492.95 493.92 493.76 494.44 494.58 494.97 C 498.83 497.60 502.91 501.13 508.10 501.57 C 512.40 501.90 516.73 501.84 521.05 501.74 C 527.61 501.71 533.28 497.98 538.92 495.08 C 548.60 490.15 555.48 481.07 565.49 476.69 Z" />
<path fill="#4427f1" opacity="1.00" d=" M 972.02 557.02 C 979.03 550.23 985.54 542.92 992.96 536.56 C 995.56 540.55 998.26 544.54 1000.00 549.02 L 1000.00 556.37 C 997.68 562.06 995.70 568.66 990.12 572.06 C 983.57 576.93 974.53 578.26 967.01 574.91 C 964.40 573.66 961.04 572.35 960.27 569.25 C 963.59 564.65 968.15 561.13 972.02 557.02 Z" />
<path fill="#4427f1" opacity="1.00" d=" M 223.64 586.63 C 228.32 581.82 235.93 580.80 242.03 583.14 C 245.99 585.96 250.96 589.60 250.80 595.01 C 250.88 598.26 250.79 601.53 250.38 604.76 C 246.84 613.72 234.72 616.84 226.67 612.27 C 222.71 609.04 218.79 604.51 219.18 599.06 C 218.77 594.50 219.96 589.62 223.64 586.63 Z" />
<path fill="#4427f1" opacity="1.00" d=" M 874.46 599.33 C 880.08 597.88 885.95 603.35 886.26 608.96 C 885.28 613.58 881.41 617.37 876.86 618.50 C 871.55 618.42 866.71 613.42 867.47 607.97 C 867.33 603.76 870.93 600.83 874.46 599.33 Z" />
<path fill="#4427f1" opacity="1.00" d=" M 830.25 721.86 C 826.96 709.88 835.20 696.21 847.04 692.88 C 854.31 691.97 862.48 691.71 868.67 696.31 C 875.27 700.62 878.40 708.47 879.21 716.04 C 879.40 718.67 878.61 721.24 877.78 723.71 C 876.98 725.79 876.07 727.83 875.00 729.79 C 869.48 739.73 856.33 743.04 845.95 739.82 C 840.58 737.51 835.14 734.02 832.83 728.39 C 831.84 726.26 830.99 724.07 830.25 721.86 Z" />
<path fill="#4427f1" opacity="1.00" d=" M 701.14 704.31 C 702.49 703.17 703.90 702.11 705.32 701.06 C 705.79 702.81 706.28 704.57 706.72 706.35 C 707.90 712.76 708.24 720.33 703.47 725.45 C 698.98 731.13 690.93 732.80 687.15 739.13 C 682.35 746.58 691.99 756.28 699.74 753.92 C 702.65 753.58 705.92 751.40 708.68 753.31 C 712.05 755.30 714.66 758.97 714.25 763.04 C 714.04 765.28 713.80 768.30 711.34 769.24 C 706.22 771.09 700.66 768.59 695.52 770.33 C 691.87 771.39 689.01 774.37 687.50 777.79 C 686.82 781.66 687.66 785.61 689.49 789.06 C 693.09 792.96 698.33 794.22 703.14 795.90 C 707.85 797.41 711.41 802.00 711.50 806.97 C 711.35 812.24 708.10 817.13 703.49 819.60 C 698.74 822.55 692.99 823.17 687.53 822.67 C 686.97 822.51 685.86 822.18 685.31 822.02 C 675.06 818.47 664.22 816.14 653.35 816.38 C 647.60 816.97 640.63 817.98 637.53 823.53 C 634.61 828.19 635.86 833.87 635.49 839.05 C 635.58 845.78 628.08 851.42 621.65 849.27 C 615.31 846.02 615.58 836.91 609.22 833.67 C 604.59 831.71 598.45 832.01 594.80 835.79 C 591.85 838.60 589.32 842.61 590.31 846.86 C 591.52 851.95 594.38 856.65 594.30 862.02 C 594.20 868.13 592.95 874.93 588.25 879.26 C 583.33 883.56 576.34 886.02 569.90 883.98 C 562.15 881.60 553.49 879.67 545.64 882.60 C 538.02 886.15 537.45 895.45 534.08 902.14 C 532.66 905.60 529.28 907.46 526.18 909.17 C 522.55 909.63 518.92 910.08 515.31 910.68 C 511.54 908.03 506.49 905.86 505.25 900.99 C 506.76 896.47 511.24 893.77 514.45 890.47 C 530.52 875.20 545.83 859.17 561.71 843.71 C 608.11 797.17 655.03 751.14 701.14 704.31 Z" />
<path fill="#4427f1" opacity="1.00" d=" M 231.55 702.74 C 232.50 701.67 233.62 703.00 234.33 703.64 C 239.00 708.79 239.70 716.33 238.84 722.96 C 236.92 731.61 229.77 739.09 220.93 740.65 C 214.38 741.10 206.54 741.59 201.74 736.18 C 199.75 734.89 201.13 732.61 202.51 731.49 C 212.46 722.19 221.76 712.19 231.55 702.74 Z" />
<path fill="#4427f1" opacity="1.00" d=" M 431.99 729.99 C 436.62 725.41 441.07 720.63 446.00 716.36 C 455.24 725.06 460.63 736.89 463.99 748.93 C 466.86 762.95 465.91 777.95 460.16 791.15 C 457.49 797.69 453.50 803.61 449.11 809.13 C 443.02 816.62 434.68 821.84 426.20 826.23 C 419.30 829.89 411.52 831.18 403.90 832.43 C 396.24 833.25 388.42 832.72 380.95 830.83 C 374.84 829.10 369.05 826.43 363.41 823.56 C 358.13 820.87 353.86 816.69 349.37 812.91 C 361.08 800.45 373.50 788.68 385.49 776.49 C 400.98 760.98 416.50 745.50 431.99 729.99 Z" />
<path fill="#4427f1" opacity="1.00" d=" M 565.41 763.42 C 573.61 756.22 585.12 753.13 595.87 754.60 C 603.63 756.23 610.57 760.43 617.00 764.92 C 606.71 775.66 596.01 785.99 585.56 796.57 C 577.74 804.25 570.19 812.21 562.22 819.75 C 556.66 811.49 551.84 802.14 551.70 791.97 C 552.78 781.33 556.88 770.32 565.41 763.42 Z" />
</g>
<g id="#dfdfe1ff">
<path fill="#dfdfe1" opacity="1.00" d=" M 431.17 19.16 C 434.46 15.55 437.90 11.96 442.36 9.79 C 440.67 15.42 435.74 18.83 431.83 22.83 C 413.18 41.51 394.46 60.13 375.84 78.84 C 372.42 82.34 367.92 85.14 366.34 90.03 C 361.71 88.90 356.87 88.30 352.14 89.18 C 355.60 88.52 359.17 88.49 362.56 87.51 C 365.86 85.61 367.98 82.28 370.68 79.67 C 390.85 59.52 411.02 39.35 431.17 19.16 Z" />
</g>
<g id="#3f21f3ff">
<path fill="#3f21f3" opacity="1.00" d=" M 282.42 78.25 C 283.19 74.47 287.70 75.39 290.54 75.32 C 291.23 76.55 291.91 77.79 292.63 79.02 C 291.59 80.62 290.60 82.26 289.62 83.90 C 286.33 84.02 281.53 82.41 282.42 78.25 Z" />
<path fill="#3f21f3" opacity="1.00" d=" M 759.97 827.87 C 762.43 828.27 765.89 827.35 767.03 830.30 C 769.30 834.60 762.82 838.38 759.49 835.56 C 757.50 833.16 759.01 830.30 759.97 827.87 Z" />
</g>
<g id="#d8d8d8ff">
<path fill="#d8d8d8" opacity="1.00" d=" M 361.70 124.03 C 362.95 127.26 363.34 130.84 362.31 134.20 C 362.18 132.08 361.98 129.97 361.79 127.86 C 361.28 129.90 360.81 131.96 360.33 134.01 C 357.99 133.68 354.42 133.94 354.08 130.76 C 353.23 126.28 358.71 125.45 361.70 124.03 Z" />
<path fill="#d8d8d8" opacity="1.00" d=" M 141.41 125.35 C 143.76 124.94 147.13 126.22 147.06 129.02 C 147.69 131.89 144.93 134.58 142.07 134.00 C 137.39 134.05 137.48 126.73 141.41 125.35 Z" />
<path fill="#d8d8d8" opacity="1.00" d=" M 168.43 125.40 C 171.24 124.62 174.20 127.04 173.99 129.97 C 174.37 134.48 166.61 135.69 165.58 131.33 C 164.43 128.90 166.19 126.35 168.43 125.40 Z" />
<path fill="#d8d8d8" opacity="1.00" d=" M 195.44 125.42 C 198.39 124.58 201.57 127.86 200.82 130.81 C 200.19 135.05 192.77 135.09 192.16 130.81 C 191.56 128.44 193.36 126.27 195.44 125.42 Z" />
<path fill="#d8d8d8" opacity="1.00" d=" M 222.42 125.44 C 225.86 124.29 228.98 129.10 227.14 132.01 C 225.61 135.33 219.65 134.41 219.10 130.80 C 218.52 128.44 220.31 126.23 222.42 125.44 Z" />
<path fill="#d8d8d8" opacity="1.00" d=" M 249.37 125.42 C 252.86 124.30 255.71 128.90 254.06 131.88 C 253.57 134.34 250.33 134.24 248.42 133.72 C 244.64 132.26 245.14 125.83 249.37 125.42 Z" />
<path fill="#d8d8d8" opacity="1.00" d=" M 330.42 125.41 C 333.65 124.47 337.00 128.48 335.62 131.53 C 334.32 134.89 328.54 135.03 327.30 131.56 C 326.08 129.07 328.16 126.36 330.42 125.41 Z" />
<path fill="#d8d8d8" opacity="1.00" d=" M 101.33 152.28 C 104.62 151.27 108.64 156.10 105.90 158.85 C 104.35 161.27 100.27 161.90 98.61 159.27 C 96.69 156.86 98.60 153.06 101.33 152.28 Z" />
<path fill="#d8d8d8" opacity="1.00" d=" M 127.44 152.37 C 130.36 151.19 133.90 153.84 133.84 156.89 C 133.28 159.90 129.47 162.08 126.71 160.36 C 123.90 158.57 124.45 153.70 127.44 152.37 Z" />
<path fill="#d8d8d8" opacity="1.00" d=" M 154.44 152.37 C 157.35 151.09 160.81 153.84 160.73 156.85 C 160.25 159.58 157.14 161.75 154.44 160.64 C 150.88 159.47 151.18 153.73 154.44 152.37 Z" />
<path fill="#d8d8d8" opacity="1.00" d=" M 181.45 152.36 C 185.56 150.45 188.95 156.13 186.38 159.34 C 184.56 161.90 180.80 160.87 179.09 158.75 C 178.51 156.41 178.88 153.32 181.45 152.36 Z" />
<path fill="#d8d8d8" opacity="1.00" d=" M 208.43 152.26 C 210.95 151.41 214.19 153.21 214.09 156.05 C 215.20 159.75 209.73 162.36 207.17 159.88 C 204.74 157.84 205.53 153.46 208.43 152.26 Z" />
<path fill="#d8d8d8" opacity="1.00" d=" M 235.41 152.29 C 239.81 150.52 243.05 156.97 239.85 159.88 C 237.24 162.37 232.76 160.15 232.26 156.86 C 232.10 154.84 233.77 153.19 235.41 152.29 Z" />
<path fill="#d8d8d8" opacity="1.00" d=" M 262.43 152.35 C 266.84 150.48 269.96 156.93 266.88 159.90 C 264.29 162.44 259.73 160.14 259.14 156.89 C 259.00 154.85 260.73 153.18 262.43 152.35 Z" />
<path fill="#d8d8d8" opacity="1.00" d=" M 287.07 158.88 C 284.01 155.60 289.65 150.03 293.02 152.93 C 295.91 154.83 294.88 158.41 293.91 161.07 C 291.56 160.74 288.58 161.16 287.07 158.88 Z" />
<path fill="#d8d8d8" opacity="1.00" d=" M 138.77 187.15 C 138.77 184.24 138.29 179.63 142.18 179.06 C 146.29 178.13 148.94 184.40 145.61 186.68 C 143.66 188.39 141.02 187.35 138.77 187.15 Z" />
<path fill="#d8d8d8" opacity="1.00" d=" M 217.90 184.29 C 219.56 182.30 220.59 178.45 223.84 179.08 C 227.30 179.70 228.68 183.83 226.72 186.64 C 224.32 187.19 221.95 187.86 219.59 188.53 C 219.09 187.09 218.52 185.68 217.90 184.29 Z" />
<path fill="#d8d8d8" opacity="1.00" d=" M 248.46 179.39 C 251.88 177.61 255.56 181.90 254.30 185.20 C 253.33 189.39 245.86 188.10 245.96 183.97 C 245.66 182.07 246.63 180.10 248.46 179.39 Z" />
<path fill="#d8d8d8" opacity="1.00" d=" M 302.44 179.40 C 306.06 177.61 310.70 182.72 308.05 186.01 C 305.69 189.44 300.30 187.57 299.39 183.87 C 299.90 182.11 300.93 180.46 302.44 179.40 Z" />
<path fill="#d8d8d8" opacity="1.00" d=" M 329.39 179.27 C 332.58 178.04 336.49 181.37 335.78 184.66 C 334.37 187.14 330.76 188.93 328.30 186.78 C 325.66 184.80 327.26 180.97 329.39 179.27 Z" />
<path fill="#d8d8d8" opacity="1.00" d=" M 153.76 206.65 C 157.21 203.99 162.97 209.45 159.81 212.79 C 157.89 215.34 154.61 214.65 151.95 214.03 C 152.35 211.57 151.20 208.22 153.76 206.65 Z" />
<path fill="#d8d8d8" opacity="1.00" d=" M 289.42 206.33 C 293.57 204.34 297.07 211.04 293.80 213.81 C 291.27 216.47 286.79 213.98 286.12 210.87 C 286.06 208.87 287.77 207.21 289.42 206.33 Z" />
<path fill="#d8d8d8" opacity="1.00" d=" M 316.43 206.28 C 320.08 204.57 324.71 210.43 321.22 213.17 C 318.73 216.44 313.97 214.43 313.06 210.90 C 313.08 208.88 314.75 207.20 316.43 206.28 Z" />
<path fill="#d8d8d8" opacity="1.00" d=" M 410.45 396.46 C 414.93 395.19 418.53 402.82 414.06 405.07 C 411.64 406.99 408.08 405.77 406.95 403.02 C 405.10 400.31 408.21 397.59 410.45 396.46 Z" />
<path fill="#d8d8d8" opacity="1.00" d=" M 634.33 508.40 C 635.52 506.76 637.42 505.86 638.99 504.64 C 640.71 506.32 642.95 507.69 643.88 510.01 C 643.22 512.55 641.17 515.57 638.16 514.93 C 635.52 514.25 633.07 511.14 634.33 508.40 Z" />
<path fill="#d8d8d8" opacity="1.00" d=" M 155.90 516.77 C 158.74 517.01 163.24 516.29 163.78 520.18 C 164.37 524.72 158.19 526.93 155.57 523.34 C 153.30 521.51 155.33 518.87 155.90 516.77 Z" />
<path fill="#d8d8d8" opacity="1.00" d=" M 183.24 517.07 C 185.42 516.75 188.25 516.34 189.83 518.25 C 192.16 520.80 189.58 525.85 186.04 525.09 C 182.00 525.34 180.45 519.53 183.24 517.07 Z" />
<path fill="#d8d8d8" opacity="1.00" d=" M 210.31 517.10 C 212.07 516.70 213.92 516.73 215.67 517.18 C 218.80 519.52 217.02 525.32 213.00 525.08 C 208.99 525.35 207.34 519.31 210.31 517.10 Z" />
<path fill="#d8d8d8" opacity="1.00" d=" M 237.35 517.14 C 239.34 516.57 241.49 516.86 243.41 517.60 C 244.14 519.60 244.66 522.27 242.90 523.91 C 240.85 526.24 236.40 524.95 235.96 521.86 C 235.73 520.20 235.64 518.07 237.35 517.14 Z" />
<path fill="#d8d8d8" opacity="1.00" d=" M 264.30 517.17 C 267.11 516.02 271.24 517.46 271.05 520.97 C 271.36 524.92 265.46 526.65 263.27 523.60 C 261.62 521.63 262.39 518.66 264.30 517.17 Z" />
<path fill="#d8d8d8" opacity="1.00" d=" M 291.35 517.22 C 293.23 516.93 295.15 516.94 297.05 516.85 C 297.24 518.93 298.62 521.27 297.33 523.23 C 296.06 525.52 292.71 525.63 290.73 524.29 C 288.28 522.60 288.72 518.50 291.35 517.22 Z" />
<path fill="#d8d8d8" opacity="1.00" d=" M 316.05 520.19 C 316.65 516.28 321.19 516.97 324.09 516.90 C 324.35 519.12 325.49 521.72 323.80 523.68 C 321.50 527.04 315.05 524.41 316.05 520.19 Z" />
<path fill="#d8d8d8" opacity="1.00" d=" M 345.32 517.17 C 347.22 516.88 349.16 516.96 351.08 516.87 C 351.32 518.89 352.48 521.15 351.18 523.04 C 349.88 526.24 344.42 525.73 343.38 522.54 C 342.45 520.57 343.40 518.13 345.32 517.17 Z" />
<path fill="#d8d8d8" opacity="1.00" d=" M 370.97 517.00 C 373.33 517.10 375.71 517.07 378.07 516.89 C 378.30 518.96 379.82 521.34 378.37 523.26 C 377.16 525.41 374.40 525.31 372.31 524.82 C 369.81 522.89 370.22 519.67 370.97 517.00 Z" />
<path fill="#d8d8d8" opacity="1.00" d=" M 399.23 517.08 C 401.00 516.68 402.87 516.77 404.61 517.26 C 407.34 519.80 406.07 525.23 401.97 525.08 C 397.45 526.04 395.73 519.41 399.23 517.08 Z" />
<path fill="#d8d8d8" opacity="1.00" d=" M 144.38 543.42 C 147.59 542.42 150.71 545.61 149.94 548.80 C 149.35 552.51 143.31 553.49 141.83 550.02 C 140.21 547.68 141.52 543.94 144.38 543.42 Z" />
<path fill="#d8d8d8" opacity="1.00" d=" M 171.38 543.43 C 173.35 542.96 175.45 543.83 176.73 545.36 C 177.24 547.16 177.32 549.43 175.86 550.85 C 174.47 552.40 172.15 552.11 170.31 551.82 C 167.38 549.74 167.41 544.22 171.38 543.43 Z" />
<path fill="#d8d8d8" opacity="1.00" d=" M 199.29 543.40 C 202.87 542.92 205.74 548.27 202.84 550.82 C 200.97 552.57 196.89 552.79 195.87 549.99 C 194.19 547.40 196.37 543.72 199.29 543.40 Z" />
<path fill="#d8d8d8" opacity="1.00" d=" M 225.43 543.44 C 228.37 542.57 231.59 545.86 230.83 548.80 C 230.20 552.74 223.76 553.19 222.37 549.55 C 221.31 547.04 223.06 544.33 225.43 543.44 Z" />
<path fill="#d8d8d8" opacity="1.00" d=" M 252.28 543.43 C 255.39 542.81 259.02 546.16 257.35 549.32 C 256.44 553.02 250.63 552.86 249.27 549.58 C 248.45 547.17 249.64 544.01 252.28 543.43 Z" />
<path fill="#d8d8d8" opacity="1.00" d=" M 279.30 543.44 C 283.75 542.48 285.72 548.15 283.30 551.30 C 280.57 553.07 275.69 551.68 275.94 547.91 C 275.50 545.66 277.21 543.88 279.30 543.44 Z" />
<path fill="#d8d8d8" opacity="1.00" d=" M 307.18 543.46 C 311.82 542.85 312.96 550.87 308.63 551.76 C 305.66 553.05 302.15 550.23 302.84 547.06 C 302.80 544.72 305.14 543.53 307.18 543.46 Z" />
<path fill="#d8d8d8" opacity="1.00" d=" M 333.30 543.42 C 336.71 542.68 340.01 546.92 338.07 549.96 C 336.88 552.95 332.32 552.59 330.56 550.34 C 327.86 548.12 330.36 543.85 333.30 543.42 Z" />
<path fill="#d8d8d8" opacity="1.00" d=" M 355.82 547.99 C 357.43 545.64 359.69 541.86 363.05 543.85 C 367.68 545.31 365.71 553.01 361.02 552.01 C 358.34 552.38 357.21 549.70 355.82 547.99 Z" />
<path fill="#d8d8d8" opacity="1.00" d=" M 387.40 543.39 C 390.85 542.44 394.41 546.99 392.09 550.01 C 390.10 554.25 383.17 551.51 383.57 547.26 C 384.11 545.47 385.51 543.79 387.40 543.39 Z" />
<path fill="#d8d8d8" opacity="1.00" d=" M 238.44 570.33 C 241.35 569.21 244.71 571.79 244.11 574.93 C 244.49 578.52 239.76 578.86 237.29 577.94 C 234.73 576.16 235.48 571.36 238.44 570.33 Z" />
<path fill="#d8d8d8" opacity="1.00" d=" M 265.43 570.35 C 269.50 568.66 272.68 574.09 270.34 577.29 C 268.59 579.72 264.60 579.33 263.12 576.81 C 261.09 574.54 263.04 571.34 265.43 570.35 Z" />
<path fill="#d8d8d8" opacity="1.00" d=" M 144.36 597.27 C 148.07 595.71 150.95 600.42 149.71 603.61 C 148.03 606.30 143.90 606.43 141.73 604.27 C 140.03 601.84 141.56 598.04 144.36 597.27 Z" />
<path fill="#d8d8d8" opacity="1.00" d=" M 171.34 597.27 C 174.28 596.13 177.54 598.82 177.02 601.93 C 177.16 606.19 170.02 607.06 168.56 603.37 C 167.31 601.04 168.90 597.97 171.34 597.27 Z" />
<path fill="#d8d8d8" opacity="1.00" d=" M 198.34 597.28 C 200.90 596.28 204.08 598.23 203.96 601.08 C 205.13 605.73 196.82 607.71 195.65 603.20 C 194.64 600.91 195.83 597.90 198.34 597.28 Z" />
<path fill="#d8d8d8" opacity="1.00" d=" M 276.78 604.26 C 274.43 601.45 276.87 596.10 280.82 597.06 C 284.75 597.64 283.93 602.22 284.05 605.10 C 281.63 605.30 278.68 606.39 276.78 604.26 Z" />
<path fill="#d8d8d8" opacity="1.00" d=" M 731.38 696.40 C 734.49 695.97 738.13 699.36 736.59 702.54 C 735.66 704.35 733.64 706.33 731.43 705.59 C 729.87 704.83 728.62 703.44 728.04 701.82 C 727.26 699.46 729.56 697.47 731.38 696.40 Z" />
<path fill="#d8d8d8" opacity="1.00" d=" M 758.33 696.40 C 762.42 695.77 766.25 701.55 762.20 704.24 C 759.53 707.51 755.19 704.45 754.92 700.99 C 755.05 698.97 756.64 697.33 758.33 696.40 Z" />
<path fill="#d8d8d8" opacity="1.00" d=" M 786.16 696.48 C 788.70 696.61 791.47 699.07 790.86 701.81 C 790.57 703.56 788.84 704.62 787.39 705.38 C 785.59 706.66 783.72 704.59 782.72 703.23 C 780.85 700.61 782.84 696.38 786.16 696.48 Z" />
<path fill="#d8d8d8" opacity="1.00" d=" M 943.06 700.97 C 944.09 698.91 945.70 696.92 948.02 696.30 C 950.55 696.62 952.95 698.99 952.60 701.66 C 951.47 703.56 949.58 704.84 948.03 706.37 C 946.26 704.69 944.17 703.20 943.06 700.97 Z" />
<path fill="#d8d8d8" opacity="1.00" d=" M 892.40 697.21 C 893.96 696.42 895.85 696.81 897.36 697.58 C 899.55 700.71 897.68 706.37 893.32 705.61 C 889.08 705.00 888.48 698.76 892.40 697.21 Z" />
<path fill="#d8d8d8" opacity="1.00" d=" M 830.25 721.86 C 830.99 724.07 831.84 726.26 832.83 728.39 C 830.87 729.73 829.04 731.25 827.42 732.97 C 825.97 732.25 824.42 731.73 823.14 730.75 C 822.68 728.96 822.62 727.05 823.07 725.27 C 824.88 722.67 827.94 724.64 830.19 725.37 C 830.20 724.19 830.21 723.02 830.25 721.86 Z" />
<path fill="#d8d8d8" opacity="1.00" d=" M 770.29 724.15 C 773.32 722.87 777.93 725.08 777.55 728.63 C 776.32 730.85 773.73 733.89 770.99 732.03 C 767.97 730.53 767.51 726.14 770.29 724.15 Z" />
<path fill="#d8d8d8" opacity="1.00" d=" M 797.34 724.15 C 799.41 723.51 802.12 723.69 803.40 725.70 C 805.99 728.76 801.50 734.31 798.03 732.08 C 795.09 730.87 794.83 725.85 797.34 724.15 Z" />
<path fill="#d8d8d8" opacity="1.00" d=" M 903.65 725.73 C 905.27 723.24 908.57 724.18 911.06 723.90 C 911.41 726.35 912.49 729.37 910.23 731.29 C 907.08 734.96 900.72 729.48 903.65 725.73 Z" />
<path fill="#d8d8d8" opacity="1.00" d=" M 728.97 750.92 C 731.31 751.09 733.68 751.11 736.05 750.98 C 736.28 752.95 737.39 755.18 736.08 757.02 C 734.84 759.88 730.21 759.73 728.70 757.20 C 727.22 755.30 728.65 752.95 728.97 750.92 Z" />
<path fill="#d8d8d8" opacity="1.00" d=" M 755.89 750.83 C 758.60 751.14 762.54 750.10 763.76 753.43 C 765.29 757.44 759.89 760.87 756.70 758.32 C 754.12 756.52 755.48 753.30 755.89 750.83 Z" />
<path fill="#d8d8d8" opacity="1.00" d=" M 782.89 750.85 C 785.77 750.93 790.35 750.30 790.93 754.20 C 791.95 758.37 785.48 761.06 783.23 757.67 C 781.51 755.71 782.61 753.09 782.89 750.85 Z" />
<path fill="#d8d8d8" opacity="1.00" d=" M 837.39 751.25 C 839.67 750.63 843.11 750.26 844.16 753.00 C 845.74 755.74 843.32 759.78 840.04 759.14 C 836.07 759.32 834.46 753.44 837.39 751.25 Z" />
<path fill="#d8d8d8" opacity="1.00" d=" M 863.23 751.27 C 865.73 751.52 869.20 749.77 870.89 752.32 C 871.36 754.45 871.60 757.30 869.62 758.77 C 867.30 759.59 864.18 759.19 863.19 756.62 C 862.99 754.84 863.18 753.05 863.23 751.27 Z" />
<path fill="#d8d8d8" opacity="1.00" d=" M 891.37 751.25 C 893.08 750.74 894.93 750.73 896.69 751.09 C 900.05 753.61 897.47 760.21 893.07 759.08 C 889.15 759.27 888.80 753.13 891.37 751.25 Z" />
<path fill="#d8d8d8" opacity="1.00" d=" M 918.36 751.29 C 920.39 750.76 923.74 749.95 924.79 752.42 C 926.17 755.16 924.26 759.32 920.94 759.09 C 916.73 759.94 914.37 753.09 918.36 751.29 Z" />
<path fill="#d8d8d8" opacity="1.00" d=" M 945.28 751.18 C 947.63 750.67 951.17 750.10 952.14 753.01 C 953.72 755.51 951.17 758.31 948.84 759.06 C 946.17 759.63 943.98 757.26 943.15 754.99 C 943.49 753.55 944.23 752.21 945.28 751.18 Z" />
<path fill="#d8d8d8" opacity="1.00" d=" M 716.35 778.18 C 718.36 777.59 721.81 776.95 722.69 779.48 C 724.19 782.11 722.12 786.32 718.92 786.03 C 714.69 786.93 712.21 779.95 716.35 778.18 Z" />
<path fill="#d8d8d8" opacity="1.00" d=" M 743.30 778.17 C 745.37 777.56 748.52 777.14 749.78 779.37 C 752.47 782.82 747.17 788.10 743.68 785.34 C 740.98 783.85 740.19 779.70 743.30 778.17 Z" />
<path fill="#d8d8d8" opacity="1.00" d=" M 770.22 778.08 C 772.58 777.60 776.12 777.14 777.08 780.03 C 779.44 783.91 773.00 788.21 770.08 784.85 C 767.54 783.23 768.24 779.83 770.22 778.08 Z" />
<path fill="#d8d8d8" opacity="1.00" d=" M 797.30 778.09 C 799.28 777.53 801.54 777.57 803.36 778.65 C 805.35 781.38 803.74 786.28 799.99 786.05 C 796.01 786.37 794.21 780.25 797.30 778.09 Z" />
<path fill="#d8d8d8" opacity="1.00" d=" M 824.28 778.05 C 826.31 777.79 829.63 777.13 830.48 779.62 C 832.16 782.25 830.22 786.28 826.97 786.05 C 822.95 786.32 821.18 780.26 824.28 778.05 Z" />
<path fill="#d8d8d8" opacity="1.00" d=" M 851.33 778.19 C 853.30 777.41 855.49 777.83 857.40 778.62 C 857.82 779.94 858.15 781.36 857.95 782.77 C 857.51 786.47 851.37 787.41 849.92 784.00 C 848.72 782.03 849.17 779.27 851.33 778.19 Z" />
<path fill="#d8d8d8" opacity="1.00" d=" M 877.11 779.14 C 878.86 777.21 881.76 778.19 884.06 777.88 C 884.22 780.13 885.74 782.88 883.83 784.79 C 882.72 786.17 880.77 786.21 879.19 785.95 C 876.27 785.43 874.94 781.17 877.11 779.14 Z" />
<path fill="#d8d8d8" opacity="1.00" d=" M 905.33 778.15 C 907.21 777.78 909.14 777.95 911.06 777.91 C 911.22 779.91 912.25 782.12 911.16 784.03 C 909.99 786.61 905.96 786.71 904.15 784.83 C 902.11 782.95 902.86 779.28 905.33 778.15 Z" />
<path fill="#d8d8d8" opacity="1.00" d=" M 930.22 780.39 C 931.43 777.05 935.37 778.05 938.11 777.86 C 938.48 780.31 939.46 783.31 937.25 785.23 C 934.02 787.86 928.53 784.51 930.22 780.39 Z" />
</g>
<g id="#d9d9d9ff">
<path fill="#d9d9d9" opacity="1.00" d=" M 114.46 125.42 C 117.37 124.22 120.54 126.86 120.16 129.92 C 120.40 134.15 113.42 135.87 111.84 131.99 C 110.19 129.52 111.91 126.37 114.46 125.42 Z" />
<path fill="#d9d9d9" opacity="1.00" d=" M 275.46 125.42 C 279.14 123.86 283.18 128.63 281.14 131.99 C 280.22 134.62 276.72 134.49 274.69 133.37 C 271.81 131.52 272.33 126.70 275.46 125.42 Z" />
<path fill="#d9d9d9" opacity="1.00" d=" M 303.36 125.38 C 306.63 124.46 309.90 128.44 308.64 131.52 C 307.51 134.75 302.39 134.98 300.59 132.28 C 298.70 129.89 300.53 125.99 303.36 125.38 Z" />
<path fill="#d9d9d9" opacity="1.00" d=" M 316.40 152.37 C 319.86 151.03 324.74 156.53 321.40 159.33 C 319.28 162.14 314.01 161.17 313.28 157.64 C 312.64 155.40 314.57 153.34 316.40 152.37 Z" />
<path fill="#d9d9d9" opacity="1.00" d=" M 114.40 179.22 C 117.34 178.09 120.51 180.91 120.18 183.93 C 120.00 188.17 113.02 189.38 111.56 185.35 C 110.26 182.91 112.34 180.37 114.40 179.22 Z" />
<path fill="#d9d9d9" opacity="1.00" d=" M 275.42 179.37 C 279.39 177.30 283.68 183.52 280.64 186.62 C 278.55 188.64 274.75 188.03 273.28 185.58 C 272.11 183.40 273.20 180.40 275.42 179.37 Z" />
<path fill="#d9d9d9" opacity="1.00" d=" M 100.43 206.33 C 103.34 204.95 106.69 208.00 106.90 210.87 C 106.16 214.41 101.19 216.39 98.76 213.20 C 96.23 211.10 98.02 207.60 100.43 206.33 Z" />
<path fill="#d9d9d9" opacity="1.00" d=" M 127.44 206.31 C 130.14 205.07 133.15 207.55 133.85 210.11 C 133.93 213.36 129.66 216.25 126.77 214.34 C 123.85 212.63 124.35 207.57 127.44 206.31 Z" />
<path fill="#d9d9d9" opacity="1.00" d=" M 235.38 206.28 C 238.32 204.79 241.77 207.88 241.08 210.98 C 241.36 214.84 235.78 216.25 233.63 213.35 C 230.96 211.25 232.66 207.36 235.38 206.28 Z" />
<path fill="#d9d9d9" opacity="1.00" d=" M 262.42 206.32 C 266.76 204.26 270.19 211.02 266.82 213.87 C 264.19 216.34 259.81 214.02 259.12 210.87 C 259.02 208.84 260.73 207.17 262.42 206.32 Z" />
<path fill="#d9d9d9" opacity="1.00" d=" M 157.39 570.32 C 161.02 568.84 165.67 573.53 162.95 576.90 C 161.51 579.89 156.57 579.64 155.20 576.67 C 153.39 574.45 155.35 571.54 157.39 570.32 Z" />
<path fill="#d9d9d9" opacity="1.00" d=" M 184.43 570.34 C 188.33 568.61 193.06 574.31 189.42 577.37 C 187.57 579.94 184.38 578.37 181.89 578.02 C 182.15 575.38 181.30 571.57 184.43 570.34 Z" />
<path fill="#d9d9d9" opacity="1.00" d=" M 211.45 570.34 C 215.09 568.79 218.80 573.27 216.84 576.61 C 215.60 579.40 211.35 579.81 209.60 577.34 C 208.10 575.09 208.67 571.32 211.45 570.34 Z" />
<path fill="#d9d9d9" opacity="1.00" d=" M 346.36 570.31 C 349.74 569.16 353.17 573.24 351.56 576.40 C 350.54 580.04 344.60 579.87 343.50 576.38 C 342.18 573.95 344.24 571.37 346.36 570.31 Z" />
<path fill="#d9d9d9" opacity="1.00" d=" M 373.34 570.33 C 377.24 568.56 380.53 573.93 378.21 577.05 C 376.86 580.15 371.40 579.60 370.52 576.36 C 369.41 574.06 370.85 570.94 373.34 570.33 Z" />
<path fill="#d9d9d9" opacity="1.00" d=" M 848.29 597.29 C 855.35 590.51 861.83 583.12 869.31 576.80 C 869.57 578.62 869.34 580.55 867.81 581.78 C 837.61 611.91 807.42 642.06 777.26 672.23 C 774.11 675.22 771.47 679.31 766.87 680.10 C 769.15 675.50 773.30 672.39 776.80 668.79 C 800.62 644.95 824.46 621.12 848.29 597.29 Z" />
<path fill="#d9d9d9" opacity="1.00" d=" M 113.75 644.75 C 117.36 641.24 120.47 637.05 125.13 634.85 C 124.48 639.52 120.25 642.11 117.28 645.28 C 80.30 682.30 43.17 719.19 6.24 756.26 C 4.88 757.42 3.32 758.30 1.79 759.21 C 2.33 757.42 2.74 755.49 4.21 754.22 C 40.79 717.80 77.21 681.21 113.75 644.75 Z" />
<path fill="#d9d9d9" opacity="1.00" d=" M 813.16 696.48 C 815.04 696.46 816.65 697.91 817.66 699.40 C 819.32 703.00 814.26 707.35 811.11 704.94 C 807.39 702.99 808.51 696.19 813.16 696.48 Z" />
<path fill="#d9d9d9" opacity="1.00" d=" M 916.27 700.97 C 916.61 698.60 918.82 696.91 921.02 696.31 C 923.38 696.57 925.73 698.37 925.22 701.01 C 925.45 703.69 922.64 704.81 921.00 706.33 C 919.40 704.61 916.82 703.39 916.27 700.97 Z" />
<path fill="#d9d9d9" opacity="1.00" d=" M 716.37 724.30 C 718.61 723.50 722.07 723.29 723.08 726.00 C 724.34 727.91 722.69 730.02 721.36 731.37 C 717.64 735.82 710.76 726.69 716.37 724.30 Z" />
<path fill="#d9d9d9" opacity="1.00" d=" M 743.39 724.24 C 746.46 722.59 750.15 724.67 750.79 727.98 C 749.99 729.94 748.48 731.60 746.62 732.59 C 742.54 733.09 738.79 726.34 743.39 724.24 Z" />
<path fill="#d9d9d9" opacity="1.00" d=" M 930.60 725.72 C 932.23 723.21 935.53 724.17 938.03 723.89 C 938.59 726.35 939.55 729.38 937.22 731.29 C 934.09 735.01 927.71 729.44 930.60 725.72 Z" />
<path fill="#d9d9d9" opacity="1.00" d=" M 809.88 750.80 C 812.75 750.97 817.29 750.29 817.85 754.21 C 818.86 758.48 812.81 760.93 810.12 757.86 C 808.10 755.95 809.73 753.10 809.88 750.80 Z" />
</g>
<g id="#dadbd8ff">
<path fill="#dadbd8" opacity="1.00" d=" M 168.28 179.33 C 170.86 179.63 173.39 180.31 175.98 180.57 C 174.44 182.92 173.16 185.43 172.19 188.07 C 169.75 187.40 165.80 187.93 165.35 184.63 C 164.57 182.39 166.34 180.23 168.28 179.33 Z" />
</g>
<g id="#4b2ff2ff">
<path fill="#4b2ff2" opacity="1.00" d=" M 561.94 196.87 C 564.17 198.33 566.25 199.99 568.23 201.76 C 570.28 199.84 572.65 198.32 575.03 196.85 C 574.92 199.80 573.20 202.16 571.31 204.26 C 572.62 206.51 573.97 208.74 575.01 211.13 C 572.97 210.09 570.97 208.94 568.82 208.16 C 566.41 208.28 564.37 209.93 562.41 211.20 C 562.37 210.46 562.28 208.98 562.23 208.24 C 563.25 207.18 564.22 206.05 565.02 204.81 C 564.26 202.08 561.96 199.88 561.94 196.87 Z" />
</g>
<g id="#e0e1dbff">
<path fill="#e0e1db" opacity="1.00" d=" M 343.39 204.79 C 343.80 206.85 344.27 208.91 344.72 210.97 C 345.89 209.89 347.06 208.83 348.23 207.75 C 348.62 209.54 350.24 211.80 348.37 213.29 C 346.23 216.14 341.05 215.28 340.33 211.69 C 340.46 209.13 342.27 207.01 343.39 204.79 Z" />
</g>
<g id="#dededeff">
<path fill="#dedede" opacity="1.00" d=" M 279.57 232.45 C 280.51 231.36 282.06 231.72 283.33 231.70 C 282.06 233.61 280.82 235.56 279.22 237.21 C 265.24 250.89 251.48 264.82 237.71 278.71 C 220.15 296.15 202.58 313.58 185.19 331.19 C 183.79 332.75 181.78 333.46 179.88 334.20 C 180.61 329.83 184.35 327.20 187.27 324.28 C 218.03 293.66 248.60 262.85 279.57 232.45 Z" />
<path fill="#dedede" opacity="1.00" d=" M 340.36 338.28 C 353.17 336.76 365.99 347.02 367.21 359.90 C 368.00 368.58 364.24 377.99 356.74 382.77 C 351.04 386.77 343.65 387.57 336.95 386.25 C 327.53 384.12 319.82 375.72 318.91 366.05 C 318.54 361.09 318.69 355.78 321.32 351.40 C 325.09 344.30 332.42 339.36 340.36 338.28 M 339.44 341.59 C 333.63 343.14 327.86 346.39 324.86 351.79 C 322.28 356.50 320.41 362.17 322.38 367.45 C 324.31 375.56 331.21 382.39 339.58 383.50 C 349.56 385.37 359.97 378.71 363.09 369.17 C 366.31 359.91 361.83 348.46 352.96 344.13 C 348.86 341.97 344.08 340.33 339.44 341.59 Z" />
<path fill="#dedede" opacity="1.00" d=" M 630.35 425.37 C 633.67 422.22 636.31 417.84 641.10 416.82 C 640.16 419.41 638.87 421.91 636.76 423.75 C 623.29 436.96 610.08 450.42 596.63 463.64 C 593.09 466.88 589.43 470.00 586.28 473.64 C 585.65 473.54 584.40 473.34 583.77 473.24 C 584.99 471.35 586.22 469.45 587.76 467.81 C 602.08 453.79 616.15 439.51 630.35 425.37 Z" />
<path fill="#dedede" opacity="1.00" d=" M 700.36 525.46 C 706.87 524.17 714.22 524.17 719.91 528.04 C 732.11 534.75 735.13 552.86 726.67 563.63 C 721.99 570.05 713.82 573.47 705.98 573.18 C 694.26 572.73 683.75 562.65 682.95 550.92 C 681.76 539.66 689.31 528.28 700.36 525.46 M 706.31 527.66 C 694.43 528.14 684.10 539.91 686.21 551.82 C 687.49 562.25 697.57 570.61 708.02 570.04 C 717.52 569.68 725.91 562.15 728.11 553.04 C 729.67 548.29 727.90 543.32 725.85 539.03 C 722.12 532.01 714.25 527.43 706.31 527.66 Z" />
<path fill="#dedede" opacity="1.00" d=" M 174.26 611.25 C 175.62 609.90 177.51 609.36 179.25 608.68 C 178.70 610.49 178.29 612.48 176.82 613.82 C 157.40 633.07 138.09 652.43 118.81 671.82 C 117.47 673.27 115.48 673.67 113.68 674.26 C 114.38 672.26 115.07 670.16 116.70 668.71 C 135.95 649.62 155.14 630.47 174.26 611.25 Z" />
<path fill="#dedede" opacity="1.00" d=" M 251.40 661.77 C 251.94 662.45 252.50 663.13 253.10 663.79 C 248.29 669.72 242.63 674.86 237.29 680.29 C 212.13 705.48 186.94 730.64 161.79 755.83 C 160.51 757.43 158.58 757.71 156.67 757.23 C 158.06 755.13 159.49 753.05 161.23 751.23 C 176.00 736.67 190.61 721.94 205.29 707.29 C 221.14 692.61 236.26 677.17 251.40 661.77 Z" />
<path fill="#dedede" opacity="1.00" d=" M 685.31 822.02 C 685.86 822.18 686.97 822.51 687.53 822.67 C 683.60 828.29 678.58 832.96 673.71 837.72 C 656.08 855.43 638.30 872.97 620.64 890.65 C 616.63 894.58 613.20 899.45 607.66 901.34 C 608.76 899.00 609.75 896.51 611.68 894.70 C 619.86 886.87 627.77 878.77 635.79 870.79 C 652.38 854.62 668.31 837.77 685.31 822.02 Z" />
</g>
<g id="#3111f6ff">
<path fill="#3111f6" opacity="1.00" d=" M 77.97 245.87 C 80.18 247.25 82.20 248.89 84.26 250.48 C 86.48 249.28 88.36 247.53 90.33 245.97 C 89.29 248.30 88.23 250.63 86.81 252.76 C 88.37 254.59 89.63 256.68 90.14 259.07 C 88.20 257.84 86.47 256.10 84.21 255.48 C 81.80 256.69 79.48 258.09 77.10 259.36 C 78.63 257.15 80.32 255.07 82.08 253.05 C 80.17 251.00 78.55 248.66 77.97 245.87 Z" />
</g>
<g id="#ddddddff">
<path fill="#dddddd" opacity="1.00" d=" M 142.19 305.19 C 143.53 303.79 145.47 303.35 147.24 302.77 C 146.58 307.22 142.67 309.78 139.79 312.78 C 122.12 330.46 104.37 348.05 86.81 365.81 C 85.48 367.28 83.49 367.70 81.69 368.30 C 82.33 363.53 86.68 360.95 89.69 357.71 C 107.18 340.19 124.75 322.76 142.19 305.19 Z" />
<path fill="#dddddd" opacity="1.00" d=" M 256.39 677.37 C 261.93 676.27 267.55 681.35 267.66 686.87 C 267.00 692.13 261.74 697.29 256.19 695.90 C 252.08 694.57 248.50 690.52 248.80 686.02 C 248.96 681.82 252.57 678.52 256.39 677.37 M 255.31 681.28 C 251.69 683.31 251.06 689.10 254.35 691.73 C 257.77 693.03 263.70 692.60 263.96 687.92 C 265.06 683.04 259.62 679.48 255.31 681.28 Z" />
<path fill="#dddddd" opacity="1.00" d=" M 376.67 759.67 C 389.13 747.44 401.16 734.77 413.87 722.80 C 414.45 723.23 415.63 724.09 416.22 724.51 C 414.74 726.27 413.29 728.04 411.77 729.75 C 385.35 756.00 359.06 782.39 332.70 808.70 C 306.77 834.79 280.26 860.26 254.32 886.32 C 245.93 894.85 237.13 902.99 229.25 912.00 L 225.93 912.00 C 227.67 909.72 229.22 907.30 231.13 905.15 C 279.70 856.72 328.16 808.17 376.67 759.67 Z" />
</g>
<g id="#381ef8ff">
<path fill="#381ef8" opacity="1.00" d=" M 472.55 338.55 C 476.46 336.45 482.54 338.13 483.10 343.04 C 484.73 348.38 477.29 354.12 472.92 350.06 C 469.15 347.46 469.14 341.44 472.55 338.55 M 472.82 343.10 C 472.63 344.72 472.87 346.35 472.88 347.98 C 475.31 347.93 477.75 347.96 480.18 348.06 C 480.38 346.50 480.69 344.95 480.63 343.38 C 479.63 341.77 478.25 340.45 476.99 339.06 C 475.59 340.37 473.63 341.29 472.82 343.10 Z" />
</g>
<g id="#fefeffff">
<path fill="#fefeff" opacity="1.00" d=" M 472.82 343.10 C 473.63 341.29 475.59 340.37 476.99 339.06 C 478.25 340.45 479.63 341.77 480.63 343.38 C 480.69 344.95 480.38 346.50 480.18 348.06 C 477.75 347.96 475.31 347.93 472.88 347.98 C 472.87 346.35 472.63 344.72 472.82 343.10 Z" />
</g>
<g id="#5238f3ff">
<path fill="#5238f3" opacity="1.00" d=" M 255.84 432.88 C 261.36 434.13 264.19 439.53 268.25 442.96 C 271.23 440.35 273.95 437.45 276.85 434.75 C 277.71 433.74 279.12 433.79 280.32 433.59 C 277.49 437.78 273.59 441.06 270.30 444.87 C 273.17 448.00 276.57 450.70 279.01 454.20 C 279.04 454.69 279.11 455.66 279.14 456.15 C 274.10 455.80 272.40 448.41 267.30 448.21 C 263.03 450.57 260.79 455.71 255.82 457.06 C 258.09 452.24 262.65 449.20 266.00 445.21 C 262.46 441.26 257.14 438.38 255.84 432.88 Z" />
</g>
<g id="#e1e1e1ff">
<path fill="#e1e1e1" opacity="1.00" d=" M 456.19 445.20 C 457.55 443.64 459.60 442.85 461.63 443.57 C 458.28 447.87 454.25 451.55 450.39 455.38 C 440.08 465.74 429.71 476.04 419.40 486.40 C 416.41 489.55 413.34 492.67 409.72 495.11 C 409.62 490.41 413.77 487.70 416.68 484.68 C 429.89 471.56 443.03 458.37 456.19 445.20 Z" />
</g>
<g id="#4d31f4ff">
<path fill="#4d31f4" opacity="1.00" d=" M 770.69 454.86 C 775.94 456.00 778.22 461.52 782.80 463.68 C 786.88 461.05 789.11 455.75 794.27 454.89 C 792.02 459.70 786.74 462.10 784.36 466.75 C 787.60 470.22 791.98 472.72 794.19 477.07 C 793.89 477.43 793.30 478.16 793.00 478.52 C 788.64 476.07 785.72 471.82 781.96 468.62 C 778.14 471.80 775.07 475.92 770.62 478.28 C 771.67 472.95 777.69 470.96 779.64 466.23 C 776.78 462.32 771.45 460.06 770.69 454.86 Z" />
</g>
<g id="#e1e1e2ff">
<path fill="#e1e1e2" opacity="1.00" d=" M 519.18 466.15 C 520.50 464.75 522.42 464.37 524.19 463.82 C 522.34 468.46 518.20 471.40 514.85 474.86 C 508.13 481.60 501.40 488.33 494.58 494.97 C 493.76 494.44 492.95 493.92 492.13 493.43 C 501.12 484.31 510.10 475.18 519.18 466.15 Z" />
</g>
<g id="#dcdcdcff">
<path fill="#dcdcdc" opacity="1.00" d=" M 955.18 554.18 C 959.41 550.27 962.81 545.29 968.14 542.77 C 967.93 544.96 967.53 547.25 965.75 548.76 C 948.49 565.82 931.39 583.05 914.21 600.20 C 911.20 603.50 907.92 606.53 904.30 609.14 C 903.92 608.57 903.17 607.43 902.80 606.87 C 919.92 588.99 937.77 571.80 955.18 554.18 Z" />
</g>
<g id="#3b1df5ff">
<path fill="#3b1df5" opacity="1.00" d=" M 568.34 571.73 C 565.48 567.86 567.33 561.39 572.25 560.32 C 575.71 559.44 578.77 562.16 580.05 565.15 C 580.85 568.22 579.05 570.99 577.90 573.69 C 574.73 573.32 570.58 574.69 568.34 571.73 M 569.98 563.36 C 569.70 565.64 568.72 568.37 570.78 570.18 C 572.01 572.32 574.96 572.25 576.25 570.20 C 578.29 568.39 577.26 565.63 577.03 563.34 C 574.68 563.36 572.33 563.37 569.98 563.36 Z" />
</g>
<g id="#fcfbfeff">
<path fill="#fcfbfe" opacity="1.00" d=" M 569.98 563.36 C 572.33 563.37 574.68 563.36 577.03 563.34 C 577.26 565.63 578.29 568.39 576.25 570.20 C 574.96 572.25 572.01 572.32 570.78 570.18 C 568.72 568.37 569.70 565.64 569.98 563.36 Z" />
</g>
<g id="#dcdddaff">
<path fill="#dcddda" opacity="1.00" d=" M 250.80 595.01 C 253.53 597.11 259.42 598.93 257.40 603.38 C 256.25 606.35 252.70 605.86 250.38 604.76 C 250.79 601.53 250.88 598.26 250.80 595.01 Z" />
</g>
<g id="#3114f7ff">
<path fill="#3114f7" opacity="1.00" d=" M 192.46 652.16 C 194.83 652.92 196.76 654.53 198.94 655.67 C 201.04 654.34 203.08 652.90 205.46 652.11 C 204.21 654.07 202.91 656.02 201.85 658.10 C 202.53 660.53 204.52 662.36 205.85 664.47 C 203.47 663.27 201.23 661.84 198.99 660.41 C 196.80 661.92 194.57 663.39 192.12 664.45 C 193.64 662.37 195.32 660.37 196.44 658.04 C 195.16 656.05 193.78 654.12 192.46 652.16 Z" />
</g>
<g id="#3415f5ff">
<path fill="#3415f5" opacity="1.00" d=" M 965.94 655.77 C 968.36 654.62 970.55 653.02 973.02 651.95 C 971.56 654.28 969.91 656.49 968.14 658.59 C 970.02 660.41 971.49 662.61 972.17 665.17 C 969.55 664.46 967.50 662.72 965.76 660.73 C 963.79 662.49 961.82 664.26 959.72 665.87 C 960.61 663.39 961.83 661.05 963.30 658.87 C 961.79 657.04 960.25 655.04 960.28 652.54 C 962.15 653.61 963.85 655.11 965.94 655.77 Z" />
</g>
<g id="#fefefeff">
<path fill="#fefefe" opacity="1.00" d=" M 255.31 681.28 C 259.62 679.48 265.06 683.04 263.96 687.92 C 263.70 692.60 257.77 693.03 254.35 691.73 C 251.06 689.10 251.69 683.31 255.31 681.28 Z" />
</g>
<g id="#4123f2ff">
<path fill="#4123f2" opacity="1.00" d=" M 5.20 692.15 C 8.24 692.18 11.24 692.78 13.86 694.36 C 13.45 696.41 13.87 699.37 11.49 700.34 C 9.41 700.69 7.29 700.67 5.19 700.78 C 4.28 697.95 4.33 694.98 5.20 692.15 Z" />
</g>
<g id="#e0e0daff">
<path fill="#e0e0da" opacity="1.00" d=" M 703.80 696.71 C 706.53 695.07 709.94 698.04 709.91 700.89 C 709.13 702.86 707.86 704.58 706.72 706.35 C 706.28 704.57 705.79 702.81 705.32 701.06 C 703.90 702.11 702.49 703.17 701.14 704.31 C 701.54 701.71 700.91 698.06 703.80 696.71 Z" />
</g>
<g id="#4b30f2ff">
<path fill="#4b30f2" opacity="1.00" d=" M 474.87 700.73 C 477.40 701.40 479.75 702.56 481.84 704.15 C 483.90 703.32 486.52 699.10 488.36 701.96 C 487.33 703.80 486.03 705.49 484.80 707.20 C 486.41 709.29 487.67 711.62 488.34 714.21 C 486.10 712.93 483.95 711.52 481.96 709.90 C 479.90 711.80 477.58 713.43 474.83 714.14 C 475.66 711.49 477.13 709.11 478.97 707.05 C 477.50 705.01 476.16 702.88 474.87 700.73 Z" />
</g>
<g id="#dbdbd8ff">
<path fill="#dbdbd8" opacity="1.00" d=" M 877.78 723.71 C 879.72 723.86 881.69 723.93 883.63 724.33 C 886.42 726.65 884.76 731.37 881.66 732.66 C 879.21 732.37 877.13 730.90 875.00 729.79 C 876.07 727.83 876.98 725.79 877.78 723.71 Z" />
</g>
<g id="#d9d9d7ff">
<path fill="#d9d9d7" opacity="1.00" d=" M 689.49 789.06 C 687.66 785.61 686.82 781.66 687.50 777.79 C 687.58 778.06 687.74 778.59 687.82 778.86 C 690.17 778.71 692.46 778.13 694.81 777.95 C 696.01 779.74 696.78 782.28 695.40 784.21 C 693.81 785.11 692.00 785.50 690.30 786.10 C 690.02 787.08 689.75 788.06 689.49 789.06 Z" />
</g>
<g id="#d6d6d6ff">
<path fill="#d6d6d6" opacity="1.00" d=" M 97.32 783.33 C 100.99 782.16 105.60 782.63 108.15 785.80 C 111.30 789.52 111.10 796.02 107.09 799.08 C 103.06 802.47 95.64 801.91 92.95 797.07 C 90.59 792.33 91.51 784.97 97.32 783.33 Z" />
</g>
<g id="#6d57f5ff">
<path fill="#6d57f5" opacity="1.00" d=" M 515.31 910.68 C 518.92 910.08 522.55 909.63 526.18 909.17 C 524.72 910.08 523.32 911.06 521.90 912.00 L 517.13 912.00 C 516.67 911.67 515.77 911.01 515.31 910.68 Z" />
</g>
</svg>
